<!--?xml version="1.0" encoding="utf-8"?-->
<!-- Generator: Adobe Illustrator 15.1.0, SVG Export Plug-In . SVG Version: 6.00 Build 0)  -->

<svg version="1.1" id="_x32_" xmlns="http://www.w3.org/2000/svg" xmlns:xlink="http://www.w3.org/1999/xlink" x="0px" y="0px" width="512px" height="512px" viewBox="0 0 512 512" style="width: 128px; height: 128px; opacity: 1;" xml:space="preserve">
<style type="text/css">

	.st0{fill:#4B4B4B;}

</style>
<g>
	<path class="st0" d="M256,70.172c7.875,0,14.25-6.391,14.25-14.266s-6.375-14.25-14.25-14.25s-14.25,6.375-14.25,14.25
		S248.125,70.172,256,70.172z" style="fill: rgb(255, 255, 255);"></path>
	<path class="st0" d="M451.313,430.484c-2-7.438-4.797-14.125-8.266-20.063c-6.063-10.422-14.125-18.547-22.984-24.969
		c-6.656-4.844-13.781-8.766-21-12.156c-10.844-5.078-21.922-8.969-32.156-12.75c-10.219-3.766-19.578-7.469-26.859-11.75
		c-2.656-1.578-5.047-3.219-7.109-4.938c-3.109-2.594-5.5-5.328-7.266-8.406c-1.75-3.078-2.906-6.547-3.375-10.875
		c-0.313-3.094-0.453-6-0.453-8.766c0-8.188,1.219-15.297,2.75-22.531c4.578-5.172,8.766-11.313,12.719-18.672
		c3.984-7.406,7.75-16.047,11.5-26.281c2.406-1.094,4.828-2.422,7.203-4.016c5.406-3.625,10.547-8.688,14.813-15.453
		c4.281-6.734,7.719-15.141,10.047-25.5c0.656-2.859,0.969-5.719,0.969-8.531c0-5.875-1.375-11.484-3.719-16.5
		c-1.609-3.453-3.672-6.641-6.078-9.531c1.234-4.516,2.719-10.594,4.031-17.703c1.828-9.875,3.344-21.734,3.344-34.219
		c0-8.047-0.625-16.359-2.266-24.563c-1.219-6.156-3.016-12.25-5.563-18.109c-3.813-8.797-9.359-17.047-17.078-23.875
		c-7.141-6.344-16.094-11.375-26.891-14.609c-4.578-5.469-9.297-10.109-14.156-13.984c-8.219-6.563-16.875-10.953-25.688-13.594
		c-1.672-0.5-3.344-0.953-5.031-1.344C274.797,2.469,265.672-0.016,256,0c-7.688,0-15.063,1.563-21.766,4.391
		c-3.047,1.297-5.953,2.844-8.703,4.625c-0.875,0.266-1.75,0.563-2.594,0.859c-3.938,1.344-7.688,2.906-12.625,4.844
		c-1.875,0.75-4.344,1.844-7.313,3.328c-5.172,2.625-11.844,6.484-18.984,11.813c-10.703,7.984-22.531,19.25-31.75,34.531
		c-4.594,7.641-8.547,16.266-11.313,25.938c-2.781,9.641-4.391,20.313-4.391,31.953c0,7.297,0.625,14.953,1.984,22.984
		c0,0.578,0.016,1.094,0.047,1.641c0.063,1,0.172,2.047,0.281,3.125c0.156,1.609,0.359,3.266,0.5,4.656
		c0.078,0.688,0.125,1.313,0.172,1.797c0.016,0.234,0.031,0.438,0.031,0.578l0.016,0.172v0.047v0.922l1.969,8.75
		c-2.828,3.094-5.281,6.547-7.172,10.359c-2.641,5.266-4.234,11.234-4.234,17.531c0,2.797,0.313,5.656,0.969,8.531
		c1.563,6.906,3.609,12.938,6.063,18.188c3.688,7.891,8.344,14.031,13.516,18.641c4,3.578,8.266,6.203,12.516,8.125
		c3.75,10.219,7.5,18.859,11.469,26.25c3.969,7.375,8.141,13.516,12.719,18.688c1.547,7.234,2.75,14.359,2.75,22.547
		c0,2.766-0.125,5.672-0.469,8.766c-0.297,2.984-0.953,5.547-1.906,7.859c-1.406,3.453-3.453,6.422-6.25,9.203
		c-2.797,2.766-6.359,5.328-10.594,7.734c-4.281,2.438-9.234,4.688-14.641,6.875c-9.453,3.828-20.234,7.438-31.156,11.797
		c-8.203,3.281-16.5,6.984-24.406,11.656c-5.938,3.5-11.641,7.531-16.891,12.344c-7.875,7.203-14.656,16.172-19.344,27.281
		c-4.703,11.109-7.297,24.266-7.297,39.813c0,2.172,0.469,4.281,1.219,6.203c0.703,1.813,1.672,3.484,2.828,5.047
		c2.156,2.938,4.938,5.578,8.359,8.109c5.984,4.406,13.953,8.547,24.266,12.453c15.453,5.828,36.156,11.063,62.938,14.875
		C183.594,509.625,216.422,512,256,512c34.313,0,63.547-1.781,88.172-4.75c18.469-2.203,34.328-5.078,47.797-8.359
		c10.094-2.469,18.859-5.172,26.375-8.031c5.641-2.125,10.578-4.359,14.859-6.641c3.219-1.719,6.078-3.469,8.594-5.281
		c3.766-2.734,6.813-5.563,9.109-8.734c1.141-1.609,2.094-3.297,2.797-5.141c0.672-1.844,1.094-3.844,1.094-5.922
		C454.797,448.5,453.578,439,451.313,430.484z M326.5,359.766l-49.625,77.469l-5.516-38.031l14.063-14.906l-9.109-15.203
		l38.469-20.219c1.078,1.359,2.203,2.672,3.406,3.891C320.719,355.375,323.531,357.672,326.5,359.766z M304.453,83.828h41.656
		v23.781h-68.797c0.141-0.063,0.297-0.125,0.453-0.188c10.047-4.25,18.563-11.328,24.594-20.25
		C303.094,86.078,303.797,84.969,304.453,83.828z M216.844,39.359c3.219-7.609,8.625-14.109,15.406-18.703
		c6.781-4.578,14.938-7.234,23.75-7.234c5.891,0,11.469,1.172,16.547,3.328c7.609,3.219,14.109,8.609,18.688,15.406
		c4.594,6.781,7.25,14.922,7.25,23.75c0,5.891-1.172,11.453-3.328,16.531c-3.219,7.625-8.609,14.125-15.406,18.703
		c-6.781,4.578-14.922,7.25-23.75,7.25c-5.891,0-11.453-1.188-16.531-3.328c-7.625-3.219-14.125-8.625-18.719-15.406
		c-4.563-6.781-7.25-14.922-7.25-23.75C213.5,50.016,214.703,44.438,216.844,39.359z M165.891,83.828h41.672
		c4.25,7.375,10.141,13.688,17.172,18.438c3.109,2.094,6.438,3.891,9.953,5.344h-68.797V83.828z M189.297,266.75
		c-3.891-7.219-7.75-16.234-11.734-27.438l-1.297-3.672l-3.656-1.344c-2.531-0.938-4.984-2.141-7.359-3.734
		c-3.578-2.391-6.969-5.656-10.078-10.563c-3.094-4.875-5.891-11.422-7.875-20.281h-0.016c-0.375-1.688-0.547-3.297-0.547-4.875
		c0-3.531,0.859-6.906,2.469-10.125c1.328-2.672,3.203-5.203,5.453-7.5c3.813,5.766,6.953,10.313,8.094,11.469
		c3.734,3.734,4.25-5.063,2.484-14.922c-3.25-18.016,5.422-10.063,27.469-52.578h5.469c5.609,0.703,11.641,0.641,17.906,0h113.641
		c0.688,1.047,1.422,2.078,2.203,3.109c14.156,18.875,22.203,63.141,22.203,63.141s1.922-3.656,4.781-8.547
		c1.734,2.016,3.156,4.188,4.188,6.438c1.422,3.031,2.172,6.203,2.172,9.5c0,1.594-0.172,3.203-0.547,4.891
		c-1.328,5.891-3.016,10.781-4.906,14.813c-2.844,6.078-6.109,10.25-9.547,13.313c-3.422,3.063-7.063,5.047-10.859,6.453
		l-3.656,1.328l-1.297,3.672c-3.984,11.219-7.859,20.234-11.734,27.469s-7.75,12.656-11.781,16.891l-1.578,1.672l-0.5,2.266
		c-1.797,8.25-3.594,17.391-3.594,28.219c0,3.328,0.172,6.813,0.563,10.469c0.438,4.297,1.422,8.328,2.891,12.047
		c0.063,0.172,0.156,0.344,0.219,0.516l-50.344,26.453l-55.781-25.875c1.719-4,2.891-8.406,3.375-13.141
		c0.375-3.656,0.531-7.141,0.531-10.469c0.016-10.828-1.781-19.984-3.594-28.25l-0.484-2.234l-1.578-1.688
		C197.047,279.406,193.172,273.969,189.297,266.75z M188.844,357.266c2.906-2.313,5.594-4.922,7.938-7.844l42.563,19.734
		l-9.094,15.141l14.063,14.906L239.125,435l-54.281-74.781C186.219,359.281,187.563,358.313,188.844,357.266z M437.797,459.984
		c-0.547,0.938-1.844,2.484-4.031,4.25c-1.922,1.531-4.484,3.266-7.719,5.016c-5.656,3.094-13.328,6.344-23.078,9.406
		c-14.625,4.594-33.922,8.813-58.281,11.844c-24.344,3.047-53.781,4.938-88.688,4.938c-33.734,0-62.328-1.766-86.188-4.625
		c-17.891-2.156-33.125-4.922-45.844-8.031c-9.547-2.328-17.672-4.844-24.438-7.406c-5.078-1.922-9.375-3.875-12.922-5.766
		c-2.672-1.422-4.906-2.813-6.719-4.125c-2.734-1.953-4.469-3.734-5.328-4.953c-0.438-0.594-0.656-1.047-0.734-1.281
		c-0.047-0.094-0.047-0.141-0.047-0.141c0-9.297,1.047-17.25,2.875-24.125c1.594-6.047,3.781-11.281,6.453-15.922
		c4.672-8.109,10.813-14.469,18.094-19.859c5.453-4.031,11.547-7.469,18.016-10.531c9.688-4.625,20.203-8.375,30.5-12.172
		c8.688-3.203,17.203-6.438,25.063-10.406l85.75,118.156l75.938-118.547c3.797,1.969,7.75,3.734,11.813,5.406
		c10.188,4.188,21.031,7.813,31.516,11.953c7.859,3.109,15.484,6.516,22.438,10.547c5.219,3.031,10.047,6.422,14.344,10.313
		c6.453,5.844,11.75,12.734,15.547,21.594c3.781,8.859,6.094,19.734,6.109,33.563C438.203,459.172,438.109,459.484,437.797,459.984z
		" style="fill: rgb(255, 255, 255);"></path>
</g>
</svg>
